<svg xmlns="http://www.w3.org/2000/svg" width="512" height="512" fill="none" viewBox="0 0 512 512"><defs><linearGradient id="bg" x1="72" x2="448" y1="64" y2="448" gradientUnits="userSpaceOnUse"><stop stop-color="#22D3EE"/><stop offset=".5" stop-color="#2DD4BF"/><stop offset="1" stop-color="#38BDF8"/></linearGradient><linearGradient id="accent" x1="180" x2="348" y1="156" y2="356" gradientUnits="userSpaceOnUse"><stop stop-color="#0F172A"/><stop offset="1" stop-color="#111827"/></linearGradient></defs><rect width="448" height="448" x="32" y="32" fill="url(#bg)" rx="112"/><path fill="url(#accent)" d="M180 156H278C339.856 156 390 206.144 390 268C390 329.856 339.856 380 278 380H180V156Z"/><path fill="#F8FAFC" d="M188 164H272C319.496 164 358 202.504 358 250C358 297.496 319.496 336 272 336H188V164Z"/><path fill="#0F172A" d="M214 196H268C297.823 196 322 220.177 322 250C322 279.823 297.823 304 268 304H214V196Z"/><path fill="#0F172A" d="M138 156H194V380H138C115.909 380 98 362.091 98 340V196C98 173.909 115.909 156 138 156Z"/><path fill="#22D3EE" d="M118 236H188V300H118C109.163 300 102 292.837 102 284V252C102 243.163 109.163 236 118 236Z"/></svg>